<?xml version="1.0" encoding="UTF-8"?>
<svg width="329.28pt" height="325.89pt" xml:space="preserve" xmlns="http://www.w3.org/2000/svg">
  <g transform="translate(-28.308 -25.477)">
    <g transform="translate(0 465) scale(.087805 -.087805)">
      <path d="m2656 4908c-3-7-7-42-11-78-12-124-66-245-136-304-17-14-63-35-102-47-110-33-140-68-168-195-15-68-20-131-21-302-2-235 2-256 50-269 67-19 161-81 238-158 91-90 122-152 131-260 5-55 3-64-22-93-15-18-46-42-69-54-47-24-160-48-228-48-66 0-88-23-89-92 0-78-22-187-47-234-43-83-126-104-239-62-84 31-120 57-189 131-43 45-77 96-110 164l-49 98-55 8c-80 11-381-1-480-20-57-10-101-25-132-45-43-27-50-36-68-98-11-37-20-72-20-78 0-18-58-79-104-110-57-39-156-70-251-79-44-4-79-12-78-18 1-5 37-17 80-27 237-50 323-106 362-233 12-37 21-73 21-79 0-22 54-64 110-86 47-19 89-23 290-32 243-11 327-6 340 22 3 8 26 55 51 105 87 177 235 285 391 285 113 0 151-71 184-342 7-60 21-68 118-68 83 0 179-27 229-64 60-44 71-109 38-214-39-121-134-221-286-301-22-12-44-21-50-21-5 0-23-11-39-23l-29-24 1-221c2-253 20-375 67-436 27-35 106-76 148-76 35 0 111-62 142-117 39-69 56-125 69-228 6-49 15-89 21-90 5 0 13 18 18 40 54 262 119 372 236 396 105 21 147 59 179 162 19 59 23 98 27 305 3 130 2 247-1 260-5 16-32 35-102 70-121 60-232 159-273 245-29 63-45 157-34 207 7 32 60 90 83 90 7 0 27 7 44 16 18 9 74 19 140 24 60 4 115 13 121 19s14 59 18 119c4 68 13 121 23 140 9 17 16 37 16 44 0 26 60 77 98 84 50 10 160-10 209-38 93-53 181-156 241-279 30-63 47-88 64-93 33-9 475 3 523 14 137 32 180 73 204 190 20 98 117 170 282 210 177 42 174 41 159 50-8 4-49 11-90 15-138 13-258 67-315 142-19 25-35 57-35 70 0 42-41 121-76 148-58 45-182 65-431 69l-216 5-28-30c-15-16-30-42-34-57-8-36-85-156-132-205-105-108-269-165-351-123-63 33-103 129-111 269-7 115-16 127-95 128-77 0-186 23-234 48-51 26-82 72-82 123 0 109 55 225 143 303 54 48 196 135 220 135 7 0 21 6 31 13 24 18 31 176 17 402-15 260-41 311-181 354-41 13-91 36-111 52-57 45-123 199-144 336-7 44-22 65-29 41z"/>
    </g>
    <g transform="matrix(.062088 -.062088 -.062088 -.062088 233.78 562.87)" stroke="#000">
      <path d="m2656 4908c-3-7-7-42-11-78-12-124-66-245-136-304-17-14-63-35-102-47-110-33-140-68-168-195-15-68-20-131-21-302-2-235 2-256 50-269 67-19 161-81 238-158 91-90 122-152 131-260 5-55 3-64-22-93-15-18-46-42-69-54-47-24-160-48-228-48-66 0-88-23-89-92 0-78-22-187-47-234-43-83-126-104-239-62-84 31-120 57-189 131-43 45-77 96-110 164l-49 98-55 8c-80 11-381-1-480-20-57-10-101-25-132-45-43-27-50-36-68-98-11-37-20-72-20-78 0-18-58-79-104-110-57-39-156-70-251-79-44-4-79-12-78-18 1-5 37-17 80-27 237-50 323-106 362-233 12-37 21-73 21-79 0-22 54-64 110-86 47-19 89-23 290-32 243-11 327-6 340 22 3 8 26 55 51 105 87 177 235 285 391 285 113 0 151-71 184-342 7-60 21-68 118-68 83 0 179-27 229-64 60-44 71-109 38-214-39-121-134-221-286-301-22-12-44-21-50-21-5 0-23-11-39-23l-29-24 1-221c2-253 20-375 67-436 27-35 106-76 148-76 35 0 111-62 142-117 39-69 56-125 69-228 6-49 15-89 21-90 5 0 13 18 18 40 54 262 119 372 236 396 105 21 147 59 179 162 19 59 23 98 27 305 3 130 2 247-1 260-5 16-32 35-102 70-121 60-232 159-273 245-29 63-45 157-34 207 7 32 60 90 83 90 7 0 27 7 44 16 18 9 74 19 140 24 60 4 115 13 121 19s14 59 18 119c4 68 13 121 23 140 9 17 16 37 16 44 0 26 60 77 98 84 50 10 160-10 209-38 93-53 181-156 241-279 30-63 47-88 64-93 33-9 475 3 523 14 137 32 180 73 204 190 20 98 117 170 282 210 177 42 174 41 159 50-8 4-49 11-90 15-138 13-258 67-315 142-19 25-35 57-35 70 0 42-41 121-76 148-58 45-182 65-431 69l-216 5-28-30c-15-16-30-42-34-57-8-36-85-156-132-205-105-108-269-165-351-123-63 33-103 129-111 269-7 115-16 127-95 128-77 0-186 23-234 48-51 26-82 72-82 123 0 109 55 225 143 303 54 48 196 135 220 135 7 0 21 6 31 13 24 18 31 176 17 402-15 260-41 311-181 354-41 13-91 36-111 52-57 45-123 199-144 336-7 44-22 65-29 41z" stroke="#000"/>
    </g>
  </g>
</svg>